<svg width="800" height="800" viewBox="0 0 800 800" fill="none" xmlns="http://www.w3.org/2000/svg">
<path d="M119.91 413.634C105.507 441.64 78.1224 486.857 84.5714 549.663C93.6128 637.714 161.518 707.296 247.937 718.499C299.148 724.9 347.958 711.297 385.566 684.091C394.368 677.69 405.57 677.69 414.372 684.091C451.98 711.297 499.99 724.9 552.001 718.499C638.419 707.296 707.234 638.482 718.436 552.063C724.838 500.052 711.235 452.042 684.029 414.434C677.628 405.632 677.628 394.43 684.029 385.628C711.235 348.02 724.838 299.21 718.436 247.999C707.234 161.581 637.619 92.766 552.001 81.5636C500.79 75.1623 452.78 88.7651 414.372 115.971C405.57 122.372 394.368 122.372 385.566 115.971C347.958 88.7651 299.948 75.1623 247.937 81.5636C161.518 92.766 92.7038 161.581 81.5014 247.999C75.1001 300.81 89.5031 350.421 118.309 388.029C123.11 396.03 124.711 405.632 119.91 413.634ZM273.542 133.575C300.748 133.575 325.553 141.576 346.358 154.379C356.76 160.78 359.96 174.383 354.359 184.785C340.756 211.191 332.755 240.797 332.755 272.804C332.755 304.811 340.756 334.417 354.359 360.823C359.96 371.225 356.76 384.828 346.358 391.229C319.152 408.033 286.345 416.835 250.337 410.433C188.724 400.831 139.914 349.62 133.512 287.207C125.511 204.79 191.125 133.575 273.542 133.575ZM666.425 273.604C666.425 300.81 658.424 325.615 645.621 346.42C639.22 356.822 625.617 360.023 615.215 354.421C588.809 340.819 559.203 332.817 527.196 332.817C495.189 332.817 465.583 340.819 439.177 354.421C428.775 360.023 415.172 356.822 408.771 346.42C391.967 319.214 383.165 286.407 389.567 250.399C399.969 188.786 450.38 139.976 512.793 133.575C595.21 125.573 666.425 191.187 666.425 273.604ZM526.396 666.488C499.19 666.488 474.385 658.486 453.58 645.683C443.178 639.282 439.977 625.679 445.579 615.277C459.181 588.871 467.183 559.265 467.183 527.258C467.183 495.251 459.181 465.645 445.579 439.239C439.977 428.837 443.178 415.234 453.58 408.833C480.786 392.029 513.593 383.228 549.601 389.629C611.214 399.231 660.024 450.442 666.425 512.855C674.427 595.272 608.813 666.488 526.396 666.488ZM133.512 526.458C133.512 499.252 141.514 474.447 154.317 453.642C160.718 443.24 174.321 440.04 184.723 445.641C211.129 459.244 240.735 467.245 272.742 467.245C304.749 467.245 334.355 459.244 360.761 445.641C371.163 440.04 384.766 443.24 391.167 453.642C407.971 480.848 416.772 513.655 410.371 549.663C399.969 611.276 349.558 660.086 287.145 666.488C204.728 674.489 133.512 608.875 133.512 526.458Z" fill="#0E1017"/>
</svg>
